<svg width="512" height="512" viewBox="0 0 512 512" fill="none" xmlns="http://www.w3.org/2000/svg">
<path d="M261 158.577C261.619 158.22 262.381 158.22 263 158.577L371.851 221.423C372.47 221.78 372.851 222.44 372.851 223.155V348.845C372.851 349.56 372.47 350.22 371.851 350.577L263 413.423C262.381 413.78 261.619 413.78 261 413.423L152.149 350.577C151.53 350.22 151.149 349.56 151.149 348.845V223.155C151.149 222.44 151.53 221.78 152.149 221.423L261 158.577Z" stroke="#FE0821" stroke-width="24" stroke-linejoin="bevel"/>
<path d="M374 96.5774C374.619 96.2201 375.381 96.2201 376 96.5774L484.851 159.423C485.47 159.78 485.851 160.44 485.851 161.155V286.845C485.851 287.56 485.47 288.22 484.851 288.577L376 351.423C375.381 351.78 374.619 351.78 374 351.423L265.149 288.577C264.53 288.22 264.149 287.56 264.149 286.845V161.155C264.149 160.44 264.53 159.78 265.149 159.423L374 96.5774Z" stroke="#EEE425" stroke-width="24" stroke-linejoin="bevel"/>
<path d="M152 96.5774C152.619 96.2201 153.381 96.2201 154 96.5774L262.851 159.423C263.47 159.78 263.851 160.44 263.851 161.155V286.845C263.851 287.56 263.47 288.22 262.851 288.577L154 351.423C153.381 351.78 152.619 351.78 152 351.423L43.1488 288.577C42.5299 288.22 42.1488 287.56 42.1488 286.845V161.155C42.1488 160.44 42.5299 159.78 43.1488 159.423L152 96.5774Z" stroke="black" stroke-width="24" stroke-linejoin="bevel"/>
</svg>
