<svg width="470" height="284" viewBox="0 0 470 284" fill="none" xmlns="http://www.w3.org/2000/svg">
<path d="M242.155 59.3934C242.691 59.144 243.309 59.144 243.845 59.3934L356.16 111.712C356.865 112.04 357.315 112.747 357.315 113.525V217.475C357.315 218.253 356.865 218.96 356.16 219.288L243.845 271.607C243.309 271.856 242.691 271.856 242.155 271.607L129.84 219.288C129.135 218.96 128.685 218.253 128.685 217.475V113.525C128.685 112.747 129.135 112.04 129.84 111.712L242.155 59.3934Z" stroke="#FE0821" stroke-width="24" stroke-linejoin="bevel"/>
<path d="M342.155 12.3934C342.691 12.144 343.309 12.144 343.845 12.3934L456.16 64.7118C456.865 65.0401 457.315 65.7472 457.315 66.5247V170.475C457.315 171.253 456.865 171.96 456.16 172.288L343.845 224.607C343.309 224.856 342.691 224.856 342.155 224.607L229.84 172.288C229.135 171.96 228.685 171.253 228.685 170.475V66.5247C228.685 65.7471 229.135 65.0401 229.84 64.7118L342.155 12.3934Z" stroke="#EEE425" stroke-width="24" stroke-linejoin="bevel"/>
<path d="M126.155 12.3934C126.691 12.144 127.309 12.144 127.845 12.3934L240.16 64.7118C240.865 65.0401 241.315 65.7472 241.315 66.5247V170.475C241.315 171.253 240.865 171.96 240.16 172.288L127.845 224.607C127.309 224.856 126.691 224.856 126.155 224.607L13.8401 172.288C13.1353 171.96 12.6846 171.253 12.6846 170.475V66.5247C12.6846 65.7471 13.1353 65.0401 13.8401 64.7118L126.155 12.3934Z" stroke="black" stroke-width="24" stroke-linejoin="bevel"/>
</svg>

